<mxfile host="app.diagrams.net" agent="Mozilla/5.0 (X11; Linux x86_64; rv:137.0) Gecko/20100101 Firefox/137.0" version="26.2.5">
  <diagram name="Page-1" id="rd5WgjaN5qs2F5G4zhtr">
    <mxGraphModel dx="454" dy="793" grid="1" gridSize="10" guides="1" tooltips="1" connect="1" arrows="1" fold="1" page="1" pageScale="1" pageWidth="850" pageHeight="1100" math="0" shadow="0">
      <root>
        <mxCell id="0" />
        <mxCell id="1" parent="0" />
        <mxCell id="i1IyLrbdU4EnLdiSXplg-476" style="edgeStyle=orthogonalEdgeStyle;rounded=0;orthogonalLoop=1;jettySize=auto;html=1;entryX=0;entryY=0.5;entryDx=0;entryDy=0;endArrow=none;startFill=0;" parent="1" source="i1IyLrbdU4EnLdiSXplg-362" target="i1IyLrbdU4EnLdiSXplg-475" edge="1">
          <mxGeometry relative="1" as="geometry" />
        </mxCell>
        <mxCell id="i1IyLrbdU4EnLdiSXplg-492" style="edgeStyle=orthogonalEdgeStyle;rounded=0;orthogonalLoop=1;jettySize=auto;html=1;exitX=0;exitY=0.75;exitDx=0;exitDy=0;entryX=0.75;entryY=0;entryDx=0;entryDy=0;endArrow=none;startFill=0;" parent="1" source="i1IyLrbdU4EnLdiSXplg-362" target="i1IyLrbdU4EnLdiSXplg-490" edge="1">
          <mxGeometry relative="1" as="geometry" />
        </mxCell>
        <mxCell id="i1IyLrbdU4EnLdiSXplg-493" style="edgeStyle=orthogonalEdgeStyle;rounded=0;orthogonalLoop=1;jettySize=auto;html=1;exitX=0;exitY=0.25;exitDx=0;exitDy=0;entryX=0.25;entryY=0;entryDx=0;entryDy=0;endArrow=none;startFill=0;" parent="1" source="i1IyLrbdU4EnLdiSXplg-362" target="i1IyLrbdU4EnLdiSXplg-490" edge="1">
          <mxGeometry relative="1" as="geometry" />
        </mxCell>
        <mxCell id="i1IyLrbdU4EnLdiSXplg-362" value="Villano" style="rounded=0;whiteSpace=wrap;html=1;" parent="1" vertex="1">
          <mxGeometry x="1619" y="1129.9996189432343" width="200" height="60" as="geometry" />
        </mxCell>
        <mxCell id="i1IyLrbdU4EnLdiSXplg-380" value="" style="group;rotation=0;" parent="1" vertex="1" connectable="0">
          <mxGeometry x="1665" y="1102.0011431703006" width="8" height="28" as="geometry" />
        </mxCell>
        <mxCell id="i1IyLrbdU4EnLdiSXplg-381" value="" style="ellipse;whiteSpace=wrap;html=1;aspect=fixed;fillColor=light-dark(#FFFFFF,#FFFFFF);rotation=0;" parent="i1IyLrbdU4EnLdiSXplg-380" vertex="1">
          <mxGeometry width="8" height="8" as="geometry" />
        </mxCell>
        <mxCell id="i1IyLrbdU4EnLdiSXplg-382" style="edgeStyle=orthogonalEdgeStyle;rounded=0;orthogonalLoop=1;jettySize=auto;html=1;endArrow=none;startFill=0;" parent="i1IyLrbdU4EnLdiSXplg-380" edge="1">
          <mxGeometry relative="1" as="geometry">
            <mxPoint x="4" y="28" as="targetPoint" />
            <mxPoint x="4" y="8" as="sourcePoint" />
          </mxGeometry>
        </mxCell>
        <mxCell id="i1IyLrbdU4EnLdiSXplg-387" value="&lt;font style=&quot;font-size: 8px;&quot;&gt;nombre&lt;/font&gt;" style="text;html=1;align=center;verticalAlign=middle;resizable=0;points=[];autosize=1;strokeColor=none;fillColor=none;rotation=-60;" parent="1" vertex="1">
          <mxGeometry x="1649" y="1069.0011431703008" width="50" height="30" as="geometry" />
        </mxCell>
        <mxCell id="i1IyLrbdU4EnLdiSXplg-388" value="" style="group;rotation=0;" parent="1" vertex="1" connectable="0">
          <mxGeometry x="1685" y="1102.0011431703006" width="8" height="28" as="geometry" />
        </mxCell>
        <mxCell id="i1IyLrbdU4EnLdiSXplg-389" value="" style="ellipse;whiteSpace=wrap;html=1;aspect=fixed;fillColor=light-dark(#FFFFFF,transparent);rotation=0;" parent="i1IyLrbdU4EnLdiSXplg-388" vertex="1">
          <mxGeometry width="8" height="8" as="geometry" />
        </mxCell>
        <mxCell id="i1IyLrbdU4EnLdiSXplg-390" style="edgeStyle=orthogonalEdgeStyle;rounded=0;orthogonalLoop=1;jettySize=auto;html=1;endArrow=none;startFill=0;" parent="i1IyLrbdU4EnLdiSXplg-388" edge="1">
          <mxGeometry relative="1" as="geometry">
            <mxPoint x="4" y="28" as="targetPoint" />
            <mxPoint x="4" y="8" as="sourcePoint" />
          </mxGeometry>
        </mxCell>
        <mxCell id="i1IyLrbdU4EnLdiSXplg-457" value="&lt;font style=&quot;font-size: 8px;&quot;&gt;maldades&lt;/font&gt;" style="text;html=1;align=center;verticalAlign=middle;resizable=0;points=[];autosize=1;strokeColor=none;fillColor=none;rotation=-60;" parent="1" vertex="1">
          <mxGeometry x="1665" y="1065.0011431703008" width="60" height="30" as="geometry" />
        </mxCell>
        <mxCell id="i1IyLrbdU4EnLdiSXplg-458" value="" style="group;rotation=0;" parent="1" vertex="1" connectable="0">
          <mxGeometry x="1705" y="1102.0011431703006" width="8" height="28" as="geometry" />
        </mxCell>
        <mxCell id="i1IyLrbdU4EnLdiSXplg-459" value="" style="ellipse;whiteSpace=wrap;html=1;aspect=fixed;fillColor=light-dark(#FFFFFF,transparent);rotation=0;" parent="i1IyLrbdU4EnLdiSXplg-458" vertex="1">
          <mxGeometry width="8" height="8" as="geometry" />
        </mxCell>
        <mxCell id="i1IyLrbdU4EnLdiSXplg-460" style="edgeStyle=orthogonalEdgeStyle;rounded=0;orthogonalLoop=1;jettySize=auto;html=1;endArrow=none;startFill=0;" parent="i1IyLrbdU4EnLdiSXplg-458" edge="1">
          <mxGeometry relative="1" as="geometry">
            <mxPoint x="4" y="28" as="targetPoint" />
            <mxPoint x="4" y="8" as="sourcePoint" />
          </mxGeometry>
        </mxCell>
        <mxCell id="i1IyLrbdU4EnLdiSXplg-461" value="&lt;font style=&quot;font-size: 8px;&quot;&gt;f_nac&lt;/font&gt;" style="text;html=1;align=center;verticalAlign=middle;resizable=0;points=[];autosize=1;strokeColor=none;fillColor=none;rotation=-60;" parent="1" vertex="1">
          <mxGeometry x="1686" y="1072.0011431703008" width="50" height="30" as="geometry" />
        </mxCell>
        <mxCell id="i1IyLrbdU4EnLdiSXplg-462" value="" style="group;rotation=0;" parent="1" vertex="1" connectable="0">
          <mxGeometry x="1725" y="1102.0011431703006" width="8" height="28" as="geometry" />
        </mxCell>
        <mxCell id="i1IyLrbdU4EnLdiSXplg-463" value="" style="ellipse;whiteSpace=wrap;html=1;aspect=fixed;fillColor=light-dark(#FFFFFF,transparent);rotation=0;" parent="i1IyLrbdU4EnLdiSXplg-462" vertex="1">
          <mxGeometry width="8" height="8" as="geometry" />
        </mxCell>
        <mxCell id="i1IyLrbdU4EnLdiSXplg-464" style="edgeStyle=orthogonalEdgeStyle;rounded=0;orthogonalLoop=1;jettySize=auto;html=1;endArrow=none;startFill=0;" parent="i1IyLrbdU4EnLdiSXplg-462" edge="1">
          <mxGeometry relative="1" as="geometry">
            <mxPoint x="4" y="28" as="targetPoint" />
            <mxPoint x="4" y="8" as="sourcePoint" />
          </mxGeometry>
        </mxCell>
        <mxCell id="i1IyLrbdU4EnLdiSXplg-465" value="&lt;font style=&quot;font-size: 8px;&quot;&gt;calle&lt;/font&gt;" style="text;html=1;align=center;verticalAlign=middle;resizable=0;points=[];autosize=1;strokeColor=none;fillColor=none;rotation=-60;" parent="1" vertex="1">
          <mxGeometry x="1706" y="1072.0011431703008" width="50" height="30" as="geometry" />
        </mxCell>
        <mxCell id="i1IyLrbdU4EnLdiSXplg-466" value="" style="group;rotation=0;" parent="1" vertex="1" connectable="0">
          <mxGeometry x="1745" y="1102.0011431703006" width="8" height="28" as="geometry" />
        </mxCell>
        <mxCell id="i1IyLrbdU4EnLdiSXplg-467" value="" style="ellipse;whiteSpace=wrap;html=1;aspect=fixed;fillColor=light-dark(#FFFFFF,transparent);rotation=0;" parent="i1IyLrbdU4EnLdiSXplg-466" vertex="1">
          <mxGeometry width="8" height="8" as="geometry" />
        </mxCell>
        <mxCell id="i1IyLrbdU4EnLdiSXplg-468" style="edgeStyle=orthogonalEdgeStyle;rounded=0;orthogonalLoop=1;jettySize=auto;html=1;endArrow=none;startFill=0;" parent="i1IyLrbdU4EnLdiSXplg-466" edge="1">
          <mxGeometry relative="1" as="geometry">
            <mxPoint x="4" y="28" as="targetPoint" />
            <mxPoint x="4" y="8" as="sourcePoint" />
          </mxGeometry>
        </mxCell>
        <mxCell id="i1IyLrbdU4EnLdiSXplg-469" value="&lt;font style=&quot;font-size: 8px;&quot;&gt;nro(0,1)&lt;/font&gt;" style="text;html=1;align=center;verticalAlign=middle;resizable=0;points=[];autosize=1;strokeColor=none;fillColor=none;rotation=-60;" parent="1" vertex="1">
          <mxGeometry x="1725" y="1065.0011431703008" width="60" height="30" as="geometry" />
        </mxCell>
        <mxCell id="i1IyLrbdU4EnLdiSXplg-470" value="" style="group;rotation=0;" parent="1" vertex="1" connectable="0">
          <mxGeometry x="1765" y="1102.0011431703006" width="8" height="28" as="geometry" />
        </mxCell>
        <mxCell id="i1IyLrbdU4EnLdiSXplg-471" value="" style="ellipse;whiteSpace=wrap;html=1;aspect=fixed;fillColor=light-dark(#FFFFFF,transparent);rotation=0;" parent="i1IyLrbdU4EnLdiSXplg-470" vertex="1">
          <mxGeometry width="8" height="8" as="geometry" />
        </mxCell>
        <mxCell id="i1IyLrbdU4EnLdiSXplg-472" style="edgeStyle=orthogonalEdgeStyle;rounded=0;orthogonalLoop=1;jettySize=auto;html=1;endArrow=none;startFill=0;" parent="i1IyLrbdU4EnLdiSXplg-470" edge="1">
          <mxGeometry relative="1" as="geometry">
            <mxPoint x="4" y="28" as="targetPoint" />
            <mxPoint x="4" y="8" as="sourcePoint" />
          </mxGeometry>
        </mxCell>
        <mxCell id="i1IyLrbdU4EnLdiSXplg-473" value="&lt;font style=&quot;font-size: 8px;&quot;&gt;piso(0,1)&lt;/font&gt;" style="text;html=1;align=center;verticalAlign=middle;resizable=0;points=[];autosize=1;strokeColor=none;fillColor=none;rotation=-60;" parent="1" vertex="1">
          <mxGeometry x="1740" y="1062.0011431703008" width="70" height="30" as="geometry" />
        </mxCell>
        <mxCell id="i1IyLrbdU4EnLdiSXplg-474" value="Telefono" style="rounded=0;whiteSpace=wrap;html=1;" parent="1" vertex="1">
          <mxGeometry x="2100" y="1129.9996189432343" width="200" height="60" as="geometry" />
        </mxCell>
        <mxCell id="i1IyLrbdU4EnLdiSXplg-477" style="edgeStyle=orthogonalEdgeStyle;rounded=0;orthogonalLoop=1;jettySize=auto;html=1;entryX=0;entryY=0.5;entryDx=0;entryDy=0;endArrow=none;startFill=0;" parent="1" source="i1IyLrbdU4EnLdiSXplg-475" target="i1IyLrbdU4EnLdiSXplg-474" edge="1">
          <mxGeometry relative="1" as="geometry" />
        </mxCell>
        <mxCell id="i1IyLrbdU4EnLdiSXplg-475" value="tiene" style="rhombus;whiteSpace=wrap;html=1;" parent="1" vertex="1">
          <mxGeometry x="1920" y="1120" width="80" height="80" as="geometry" />
        </mxCell>
        <mxCell id="i1IyLrbdU4EnLdiSXplg-478" value="(0,n)" style="text;html=1;align=center;verticalAlign=middle;resizable=0;points=[];autosize=1;strokeColor=none;fillColor=none;" parent="1" vertex="1">
          <mxGeometry x="1818" y="1130" width="60" height="30" as="geometry" />
        </mxCell>
        <mxCell id="i1IyLrbdU4EnLdiSXplg-479" value="(1,1)" style="text;html=1;align=center;verticalAlign=middle;resizable=0;points=[];autosize=1;strokeColor=none;fillColor=none;" parent="1" vertex="1">
          <mxGeometry x="2040" y="1130" width="60" height="30" as="geometry" />
        </mxCell>
        <mxCell id="i1IyLrbdU4EnLdiSXplg-480" value="" style="group;rotation=0;" parent="1" vertex="1" connectable="0">
          <mxGeometry x="2196" y="1102.0011431703006" width="8" height="28" as="geometry" />
        </mxCell>
        <mxCell id="i1IyLrbdU4EnLdiSXplg-481" value="" style="ellipse;whiteSpace=wrap;html=1;aspect=fixed;fillColor=light-dark(#FFFFFF,#FFFFFF);rotation=0;" parent="i1IyLrbdU4EnLdiSXplg-480" vertex="1">
          <mxGeometry width="8" height="8" as="geometry" />
        </mxCell>
        <mxCell id="i1IyLrbdU4EnLdiSXplg-482" style="edgeStyle=orthogonalEdgeStyle;rounded=0;orthogonalLoop=1;jettySize=auto;html=1;endArrow=none;startFill=0;" parent="i1IyLrbdU4EnLdiSXplg-480" edge="1">
          <mxGeometry relative="1" as="geometry">
            <mxPoint x="4" y="28" as="targetPoint" />
            <mxPoint x="4" y="8" as="sourcePoint" />
          </mxGeometry>
        </mxCell>
        <mxCell id="i1IyLrbdU4EnLdiSXplg-483" value="&lt;font style=&quot;font-size: 8px;&quot;&gt;telefono&lt;/font&gt;" style="text;html=1;align=center;verticalAlign=middle;resizable=0;points=[];autosize=1;strokeColor=none;fillColor=none;rotation=-60;" parent="1" vertex="1">
          <mxGeometry x="2176" y="1064.0011431703008" width="60" height="30" as="geometry" />
        </mxCell>
        <mxCell id="i1IyLrbdU4EnLdiSXplg-521" style="edgeStyle=orthogonalEdgeStyle;rounded=0;orthogonalLoop=1;jettySize=auto;html=1;entryX=0.5;entryY=0;entryDx=0;entryDy=0;endArrow=none;startFill=0;" parent="1" source="i1IyLrbdU4EnLdiSXplg-490" target="i1IyLrbdU4EnLdiSXplg-520" edge="1">
          <mxGeometry relative="1" as="geometry" />
        </mxCell>
        <mxCell id="i1IyLrbdU4EnLdiSXplg-526" style="edgeStyle=orthogonalEdgeStyle;rounded=0;orthogonalLoop=1;jettySize=auto;html=1;entryX=0.5;entryY=0;entryDx=0;entryDy=0;endArrow=none;startFill=0;" parent="1" source="i1IyLrbdU4EnLdiSXplg-490" target="i1IyLrbdU4EnLdiSXplg-525" edge="1">
          <mxGeometry relative="1" as="geometry" />
        </mxCell>
        <mxCell id="i1IyLrbdU4EnLdiSXplg-490" value="Minion" style="rounded=0;whiteSpace=wrap;html=1;" parent="1" vertex="1">
          <mxGeometry x="1370" y="1399.9996189432343" width="200" height="60" as="geometry" />
        </mxCell>
        <mxCell id="i1IyLrbdU4EnLdiSXplg-491" value="Violeta" style="rounded=0;whiteSpace=wrap;html=1;" parent="1" vertex="1">
          <mxGeometry x="1370" y="1639.9996189432343" width="200" height="60" as="geometry" />
        </mxCell>
        <mxCell id="i1IyLrbdU4EnLdiSXplg-494" value="historico" style="rhombus;whiteSpace=wrap;html=1;" parent="1" vertex="1">
          <mxGeometry x="1480" y="1240" width="80" height="80" as="geometry" />
        </mxCell>
        <mxCell id="i1IyLrbdU4EnLdiSXplg-495" value="actual" style="rhombus;whiteSpace=wrap;html=1;" parent="1" vertex="1">
          <mxGeometry x="1380" y="1240" width="80" height="80" as="geometry" />
        </mxCell>
        <mxCell id="i1IyLrbdU4EnLdiSXplg-496" value="" style="group;rotation=90;" parent="1" vertex="1" connectable="0">
          <mxGeometry x="1548" y="1244.0011431703006" width="8" height="28" as="geometry" />
        </mxCell>
        <mxCell id="i1IyLrbdU4EnLdiSXplg-497" value="" style="ellipse;whiteSpace=wrap;html=1;aspect=fixed;fillColor=light-dark(#FFFFFF,transparent);rotation=90;" parent="i1IyLrbdU4EnLdiSXplg-496" vertex="1">
          <mxGeometry x="10" y="10" width="8" height="8" as="geometry" />
        </mxCell>
        <mxCell id="i1IyLrbdU4EnLdiSXplg-498" style="edgeStyle=orthogonalEdgeStyle;rounded=0;orthogonalLoop=1;jettySize=auto;html=1;endArrow=none;startFill=0;" parent="i1IyLrbdU4EnLdiSXplg-496" edge="1">
          <mxGeometry relative="1" as="geometry">
            <mxPoint x="-10" y="14" as="targetPoint" />
            <mxPoint x="10" y="14" as="sourcePoint" />
          </mxGeometry>
        </mxCell>
        <mxCell id="i1IyLrbdU4EnLdiSXplg-499" value="&lt;font style=&quot;font-size: 8px;&quot;&gt;f_fin&lt;/font&gt;" style="text;html=1;align=center;verticalAlign=middle;resizable=0;points=[];autosize=1;strokeColor=none;fillColor=none;rotation=0;" parent="1" vertex="1">
          <mxGeometry x="1556" y="1240.0011431703008" width="50" height="30" as="geometry" />
        </mxCell>
        <mxCell id="i1IyLrbdU4EnLdiSXplg-500" value="" style="group;rotation=90;" parent="1" vertex="1" connectable="0">
          <mxGeometry x="1552" y="1284.0011431703006" width="8" height="28" as="geometry" />
        </mxCell>
        <mxCell id="i1IyLrbdU4EnLdiSXplg-501" value="" style="ellipse;whiteSpace=wrap;html=1;aspect=fixed;fillColor=light-dark(#FFFFFF,transparent);rotation=90;" parent="i1IyLrbdU4EnLdiSXplg-500" vertex="1">
          <mxGeometry x="10" y="10" width="8" height="8" as="geometry" />
        </mxCell>
        <mxCell id="i1IyLrbdU4EnLdiSXplg-502" style="edgeStyle=orthogonalEdgeStyle;rounded=0;orthogonalLoop=1;jettySize=auto;html=1;endArrow=none;startFill=0;" parent="i1IyLrbdU4EnLdiSXplg-500" edge="1">
          <mxGeometry relative="1" as="geometry">
            <mxPoint x="-10" y="14" as="targetPoint" />
            <mxPoint x="10" y="14" as="sourcePoint" />
          </mxGeometry>
        </mxCell>
        <mxCell id="i1IyLrbdU4EnLdiSXplg-503" value="&lt;font style=&quot;font-size: 8px;&quot;&gt;f_inicio&lt;/font&gt;" style="text;html=1;align=center;verticalAlign=middle;resizable=0;points=[];autosize=1;strokeColor=none;fillColor=none;rotation=0;" parent="1" vertex="1">
          <mxGeometry x="1561" y="1281.0011431703008" width="60" height="30" as="geometry" />
        </mxCell>
        <mxCell id="i1IyLrbdU4EnLdiSXplg-504" value="" style="group;rotation=-90;" parent="1" vertex="1" connectable="0">
          <mxGeometry x="1381" y="1247.0011431703006" width="8" height="28" as="geometry" />
        </mxCell>
        <mxCell id="i1IyLrbdU4EnLdiSXplg-505" value="" style="ellipse;whiteSpace=wrap;html=1;aspect=fixed;fillColor=light-dark(#FFFFFF,transparent);rotation=-90;" parent="i1IyLrbdU4EnLdiSXplg-504" vertex="1">
          <mxGeometry x="-10" y="10" width="8" height="8" as="geometry" />
        </mxCell>
        <mxCell id="i1IyLrbdU4EnLdiSXplg-506" style="edgeStyle=orthogonalEdgeStyle;rounded=0;orthogonalLoop=1;jettySize=auto;html=1;endArrow=none;startFill=0;" parent="i1IyLrbdU4EnLdiSXplg-504" edge="1">
          <mxGeometry relative="1" as="geometry">
            <mxPoint x="18" y="14" as="targetPoint" />
            <mxPoint x="-2" y="14" as="sourcePoint" />
          </mxGeometry>
        </mxCell>
        <mxCell id="i1IyLrbdU4EnLdiSXplg-507" value="&lt;font style=&quot;font-size: 8px;&quot;&gt;f_inicio&lt;/font&gt;" style="text;html=1;align=center;verticalAlign=middle;resizable=0;points=[];autosize=1;strokeColor=none;fillColor=none;rotation=0;" parent="1" vertex="1">
          <mxGeometry x="1318" y="1243.0011431703008" width="60" height="30" as="geometry" />
        </mxCell>
        <mxCell id="i1IyLrbdU4EnLdiSXplg-508" value="(0,n)" style="text;html=1;align=center;verticalAlign=middle;resizable=0;points=[];autosize=1;strokeColor=none;fillColor=none;" parent="1" vertex="1">
          <mxGeometry x="1496" y="1114" width="60" height="30" as="geometry" />
        </mxCell>
        <mxCell id="i1IyLrbdU4EnLdiSXplg-509" value="(0,n)" style="text;html=1;align=center;verticalAlign=middle;resizable=0;points=[];autosize=1;strokeColor=none;fillColor=none;" parent="1" vertex="1">
          <mxGeometry x="1520" y="1176" width="60" height="30" as="geometry" />
        </mxCell>
        <mxCell id="i1IyLrbdU4EnLdiSXplg-510" value="(0,n)" style="text;html=1;align=center;verticalAlign=middle;resizable=0;points=[];autosize=1;strokeColor=none;fillColor=none;" parent="1" vertex="1">
          <mxGeometry x="1520" y="1370" width="60" height="30" as="geometry" />
        </mxCell>
        <mxCell id="i1IyLrbdU4EnLdiSXplg-511" value="(1,1)" style="text;html=1;align=center;verticalAlign=middle;resizable=0;points=[];autosize=1;strokeColor=none;fillColor=none;" parent="1" vertex="1">
          <mxGeometry x="1420" y="1370" width="60" height="30" as="geometry" />
        </mxCell>
        <mxCell id="i1IyLrbdU4EnLdiSXplg-512" value="" style="group;rotation=-90;" parent="1" vertex="1" connectable="0">
          <mxGeometry x="1352" y="1426.0011431703006" width="8" height="28" as="geometry" />
        </mxCell>
        <mxCell id="i1IyLrbdU4EnLdiSXplg-513" value="" style="ellipse;whiteSpace=wrap;html=1;aspect=fixed;fillColor=light-dark(#FFFFFF,transparent);rotation=-90;" parent="i1IyLrbdU4EnLdiSXplg-512" vertex="1">
          <mxGeometry x="-10" y="10" width="8" height="8" as="geometry" />
        </mxCell>
        <mxCell id="i1IyLrbdU4EnLdiSXplg-514" style="edgeStyle=orthogonalEdgeStyle;rounded=0;orthogonalLoop=1;jettySize=auto;html=1;endArrow=none;startFill=0;" parent="i1IyLrbdU4EnLdiSXplg-512" edge="1">
          <mxGeometry relative="1" as="geometry">
            <mxPoint x="18" y="14" as="targetPoint" />
            <mxPoint x="-2" y="14" as="sourcePoint" />
          </mxGeometry>
        </mxCell>
        <mxCell id="i1IyLrbdU4EnLdiSXplg-515" value="&lt;font style=&quot;font-size: 8px;&quot;&gt;nombre&lt;/font&gt;" style="text;html=1;align=center;verticalAlign=middle;resizable=0;points=[];autosize=1;strokeColor=none;fillColor=none;rotation=0;" parent="1" vertex="1">
          <mxGeometry x="1296" y="1423.0011431703008" width="50" height="30" as="geometry" />
        </mxCell>
        <mxCell id="i1IyLrbdU4EnLdiSXplg-516" value="" style="group;rotation=-90;" parent="1" vertex="1" connectable="0">
          <mxGeometry x="1352" y="1407.0011431703006" width="8" height="28" as="geometry" />
        </mxCell>
        <mxCell id="i1IyLrbdU4EnLdiSXplg-517" value="" style="ellipse;whiteSpace=wrap;html=1;aspect=fixed;fillColor=light-dark(#FFFFFF,#FFFFFF);rotation=-90;" parent="i1IyLrbdU4EnLdiSXplg-516" vertex="1">
          <mxGeometry x="-10" y="10" width="8" height="8" as="geometry" />
        </mxCell>
        <mxCell id="i1IyLrbdU4EnLdiSXplg-518" style="edgeStyle=orthogonalEdgeStyle;rounded=0;orthogonalLoop=1;jettySize=auto;html=1;endArrow=none;startFill=0;" parent="i1IyLrbdU4EnLdiSXplg-516" edge="1">
          <mxGeometry relative="1" as="geometry">
            <mxPoint x="18" y="14" as="targetPoint" />
            <mxPoint x="-2" y="14" as="sourcePoint" />
          </mxGeometry>
        </mxCell>
        <mxCell id="i1IyLrbdU4EnLdiSXplg-519" value="&lt;font style=&quot;font-size: 8px;&quot;&gt;codigo&lt;/font&gt;" style="text;html=1;align=center;verticalAlign=middle;resizable=0;points=[];autosize=1;strokeColor=none;fillColor=none;rotation=0;" parent="1" vertex="1">
          <mxGeometry x="1296" y="1404.0011431703008" width="50" height="30" as="geometry" />
        </mxCell>
        <mxCell id="i1IyLrbdU4EnLdiSXplg-522" style="edgeStyle=orthogonalEdgeStyle;rounded=0;orthogonalLoop=1;jettySize=auto;html=1;entryX=0.5;entryY=0;entryDx=0;entryDy=0;endArrow=none;startFill=0;" parent="1" source="i1IyLrbdU4EnLdiSXplg-520" target="i1IyLrbdU4EnLdiSXplg-491" edge="1">
          <mxGeometry relative="1" as="geometry" />
        </mxCell>
        <mxCell id="i1IyLrbdU4EnLdiSXplg-520" value="es_un" style="rhombus;whiteSpace=wrap;html=1;" parent="1" vertex="1">
          <mxGeometry x="1430" y="1510" width="80" height="80" as="geometry" />
        </mxCell>
        <mxCell id="i1IyLrbdU4EnLdiSXplg-523" value="(0,1)" style="text;html=1;align=center;verticalAlign=middle;resizable=0;points=[];autosize=1;strokeColor=none;fillColor=none;" parent="1" vertex="1">
          <mxGeometry x="1410" y="1460" width="60" height="30" as="geometry" />
        </mxCell>
        <mxCell id="i1IyLrbdU4EnLdiSXplg-524" value="(1,1)" style="text;html=1;align=center;verticalAlign=middle;resizable=0;points=[];autosize=1;strokeColor=none;fillColor=none;" parent="1" vertex="1">
          <mxGeometry x="1410" y="1610" width="60" height="30" as="geometry" />
        </mxCell>
        <mxCell id="i1IyLrbdU4EnLdiSXplg-527" style="edgeStyle=orthogonalEdgeStyle;rounded=0;orthogonalLoop=1;jettySize=auto;html=1;entryX=1;entryY=0.5;entryDx=0;entryDy=0;exitX=0.5;exitY=1;exitDx=0;exitDy=0;endArrow=none;startFill=0;" parent="1" source="i1IyLrbdU4EnLdiSXplg-525" target="i1IyLrbdU4EnLdiSXplg-491" edge="1">
          <mxGeometry relative="1" as="geometry" />
        </mxCell>
        <mxCell id="i1IyLrbdU4EnLdiSXplg-525" value="mutó" style="rhombus;whiteSpace=wrap;html=1;" parent="1" vertex="1">
          <mxGeometry x="1679" y="1510" width="80" height="80" as="geometry" />
        </mxCell>
        <mxCell id="i1IyLrbdU4EnLdiSXplg-528" value="(0,n)" style="text;html=1;align=center;verticalAlign=middle;resizable=0;points=[];autosize=1;strokeColor=none;fillColor=none;" parent="1" vertex="1">
          <mxGeometry x="1570" y="1400" width="60" height="30" as="geometry" />
        </mxCell>
        <mxCell id="i1IyLrbdU4EnLdiSXplg-529" value="(1,n)" style="text;html=1;align=center;verticalAlign=middle;resizable=0;points=[];autosize=1;strokeColor=none;fillColor=none;" parent="1" vertex="1">
          <mxGeometry x="1570" y="1640" width="60" height="30" as="geometry" />
        </mxCell>
        <mxCell id="i1IyLrbdU4EnLdiSXplg-530" value="" style="group;rotation=90;" parent="1" vertex="1" connectable="0">
          <mxGeometry x="1747" y="1514.0011431703006" width="8" height="28" as="geometry" />
        </mxCell>
        <mxCell id="i1IyLrbdU4EnLdiSXplg-531" value="" style="ellipse;whiteSpace=wrap;html=1;aspect=fixed;fillColor=light-dark(#FFFFFF,transparent);rotation=90;" parent="i1IyLrbdU4EnLdiSXplg-530" vertex="1">
          <mxGeometry x="10" y="10" width="8" height="8" as="geometry" />
        </mxCell>
        <mxCell id="i1IyLrbdU4EnLdiSXplg-532" style="edgeStyle=orthogonalEdgeStyle;rounded=0;orthogonalLoop=1;jettySize=auto;html=1;endArrow=none;startFill=0;" parent="i1IyLrbdU4EnLdiSXplg-530" edge="1">
          <mxGeometry relative="1" as="geometry">
            <mxPoint x="-10" y="14" as="targetPoint" />
            <mxPoint x="10" y="14" as="sourcePoint" />
          </mxGeometry>
        </mxCell>
        <mxCell id="i1IyLrbdU4EnLdiSXplg-533" value="&lt;font style=&quot;font-size: 8px;&quot;&gt;fecha&lt;/font&gt;" style="text;html=1;align=center;verticalAlign=middle;resizable=0;points=[];autosize=1;strokeColor=none;fillColor=none;rotation=0;" parent="1" vertex="1">
          <mxGeometry x="1755" y="1511.0011431703008" width="50" height="30" as="geometry" />
        </mxCell>
        <mxCell id="i1IyLrbdU4EnLdiSXplg-534" value="" style="group;rotation=90;" parent="1" vertex="1" connectable="0">
          <mxGeometry x="1751" y="1554.0011431703006" width="8" height="28" as="geometry" />
        </mxCell>
        <mxCell id="i1IyLrbdU4EnLdiSXplg-535" value="" style="ellipse;whiteSpace=wrap;html=1;aspect=fixed;fillColor=light-dark(#FFFFFF,transparent);rotation=90;" parent="i1IyLrbdU4EnLdiSXplg-534" vertex="1">
          <mxGeometry x="10" y="10" width="8" height="8" as="geometry" />
        </mxCell>
        <mxCell id="i1IyLrbdU4EnLdiSXplg-536" style="edgeStyle=orthogonalEdgeStyle;rounded=0;orthogonalLoop=1;jettySize=auto;html=1;endArrow=none;startFill=0;" parent="i1IyLrbdU4EnLdiSXplg-534" edge="1">
          <mxGeometry relative="1" as="geometry">
            <mxPoint x="-10" y="14" as="targetPoint" />
            <mxPoint x="10" y="14" as="sourcePoint" />
          </mxGeometry>
        </mxCell>
        <mxCell id="i1IyLrbdU4EnLdiSXplg-537" value="&lt;font style=&quot;font-size: 8px;&quot;&gt;tipo&lt;/font&gt;" style="text;html=1;align=center;verticalAlign=middle;resizable=0;points=[];autosize=1;strokeColor=none;fillColor=none;rotation=0;" parent="1" vertex="1">
          <mxGeometry x="1762" y="1551.0011431703008" width="40" height="30" as="geometry" />
        </mxCell>
        <mxCell id="i1IyLrbdU4EnLdiSXplg-538" value="" style="curved=1;endArrow=none;html=1;rounded=0;startFill=0;" parent="1" edge="1">
          <mxGeometry width="50" height="50" relative="1" as="geometry">
            <mxPoint x="1470" y="1484" as="sourcePoint" />
            <mxPoint x="1510" y="1610" as="targetPoint" />
            <Array as="points">
              <mxPoint x="1400" y="1530" />
              <mxPoint x="1400" y="1610" />
            </Array>
          </mxGeometry>
        </mxCell>
        <mxCell id="i1IyLrbdU4EnLdiSXplg-540" value="" style="ellipse;whiteSpace=wrap;html=1;aspect=fixed;fillColor=light-dark(#FFFFFF,#FFFFFF);rotation=-90;" parent="1" vertex="1">
          <mxGeometry x="1509" y="1606.0011431703006" width="8" height="8" as="geometry" />
        </mxCell>
        <mxCell id="9d3soK_tuICk7OTkf_Bh-1" value="" style="curved=1;endArrow=none;html=1;rounded=0;startFill=0;" edge="1" parent="1">
          <mxGeometry width="50" height="50" relative="1" as="geometry">
            <mxPoint x="1890" y="1160" as="sourcePoint" />
            <mxPoint x="2220" y="1120" as="targetPoint" />
            <Array as="points">
              <mxPoint x="1920" y="1110" />
              <mxPoint x="2080" y="1120" />
            </Array>
          </mxGeometry>
        </mxCell>
        <mxCell id="9d3soK_tuICk7OTkf_Bh-2" value="" style="group;rotation=0;" vertex="1" connectable="0" parent="1">
          <mxGeometry x="2219" y="1116.0011431703006" width="8" height="28" as="geometry" />
        </mxCell>
        <mxCell id="9d3soK_tuICk7OTkf_Bh-3" value="" style="ellipse;whiteSpace=wrap;html=1;aspect=fixed;fillColor=light-dark(#FFFFFF,#FFFFFF);rotation=0;" vertex="1" parent="9d3soK_tuICk7OTkf_Bh-2">
          <mxGeometry width="8" height="8" as="geometry" />
        </mxCell>
      </root>
    </mxGraphModel>
  </diagram>
</mxfile>
